<?xml version="1.0" encoding="iso-8859-1"?>
<!-- Generator: Adobe Illustrator 16.0.0, SVG Export Plug-In . SVG Version: 6.00 Build 0)  -->
<!DOCTYPE svg PUBLIC "-//W3C//DTD SVG 1.1//EN" "http://www.w3.org/Graphics/SVG/1.1/DTD/svg11.dtd">
<svg xmlns="http://www.w3.org/2000/svg" xmlns:xlink="http://www.w3.org/1999/xlink" version="1.1" id="Layer_1" x="0px" y="0px" width="512" height="512" viewBox="0 0 330.001 330.001" style="enable-background:new 0 0 330.001 330.001;" xml:space="preserve">
<g>
	<path style="fill:#61D338;" d="M325.607,158.679c-5.857-5.858-15.355-5.858-21.213,0.001l-15.109,15.107L259.07,143.57   l23.68-23.679c20.027-20.026,20.027-52.612,0-72.64c-9.701-9.703-22.602-15.045-36.322-15.046   c-13.719,0.001-26.619,5.344-36.32,15.046l-23.68,23.678l-30.215-30.217l15.107-15.105c5.857-5.858,5.858-15.355,0-21.214   c-5.857-5.858-15.355-5.857-21.213,0l-25.715,25.712C121.58,32.918,120,36.733,120,40.713c0,3.978,1.58,7.793,4.393,10.606   l40.822,40.823l-47.357,47.359L77.035,98.679c-2.813-2.813-6.629-4.393-10.607-4.394c-3.978,0-7.793,1.581-10.605,4.394   l-25.715,25.715c-5.858,5.858-5.858,15.355,0,21.213c5.857,5.858,15.355,5.859,21.213,0l15.107-15.108l30.216,30.217l-6.536,6.537   c-2.814,2.813-4.395,6.628-4.394,10.606v45.215l-81.319,81.32c-5.859,5.858-5.859,15.355,0,21.214   C7.322,328.536,11.162,330,15.001,330c3.838,0,7.678-1.464,10.606-4.393l81.318-81.322l45.218,0.001   c3.978-0.001,7.794-1.581,10.606-4.394l6.535-6.535l30.216,30.216l-15.108,15.108c-5.857,5.857-5.855,15.355,0.002,21.213   c2.93,2.929,6.768,4.393,10.606,4.393s7.677-1.465,10.607-4.394l25.712-25.715c5.858-5.858,5.855-15.354,0-21.213l-40.822-40.822   l47.359-47.359l40.822,40.822c2.813,2.813,6.628,4.396,10.605,4.394c3.979,0,7.795-1.581,10.607-4.394l25.715-25.715   C331.466,174.033,331.466,164.537,325.607,158.679z"/>
	<path style="fill:#00B10E;" d="M304.395,158.68l-15.109,15.107L259.07,143.57l23.68-23.679c20.027-20.026,20.027-52.612,0-72.64   L4.395,325.607C7.322,328.536,11.162,330,15.001,330c3.838,0,7.678-1.464,10.606-4.393l81.318-81.322l45.218,0.001   c3.978-0.001,7.794-1.581,10.606-4.394l6.535-6.535l30.216,30.216l-15.108,15.108c-5.857,5.857-5.855,15.355,0.002,21.213   c2.93,2.929,6.768,4.393,10.606,4.393s7.677-1.465,10.607-4.394l25.712-25.715c5.858-5.858,5.855-15.354,0-21.213l-40.822-40.822   l47.359-47.359l40.822,40.822c2.813,2.813,6.628,4.396,10.605,4.394c3.979,0,7.795-1.581,10.607-4.394l25.715-25.715   c5.858-5.858,5.858-15.354,0-21.213C319.75,152.82,310.252,152.82,304.395,158.68z"/>
</g>















</svg>
